<?xml version="1.0" standalone="no"?>
<!DOCTYPE svg PUBLIC "-//W3C//DTD SVG 20010904//EN"
 "http://www.w3.org/TR/2001/REC-SVG-20010904/DTD/svg10.dtd">
<svg version="1.0" xmlns="http://www.w3.org/2000/svg"
 width="260.000000pt" height="260.000000pt" viewBox="0 0 260.000000 260.000000"
 preserveAspectRatio="xMidYMid meet">
<metadata>
Created by potrace 1.11, written by Peter Selinger 2001-2013
</metadata>
<g transform="translate(0.000000,260.000000) scale(0.100000,-0.100000)"
fill="#000000" stroke="none">
<path d="M1330 2181 l0 -311 25 0 25 0 -2 308 -3 307 -22 3 -23 3 0 -310z"/>
<path d="M1060 1905 l0 -305 25 0 25 0 0 305 0 305 -25 0 -25 0 0 -305z"/>
<path d="M1600 1870 l0 -340 25 0 25 0 0 340 0 340 -25 0 -25 0 0 -340z"/>
<path d="M380 1905 l0 -105 25 0 25 0 0 105 0 105 -25 0 -25 0 0 -105z"/>
<path d="M652 1873 c3 -135 4 -138 26 -141 22 -3 22 -3 22 137 l0 141 -25 0
-26 0 3 -137z"/>
<path d="M920 1635 l0 -375 25 0 25 0 0 375 0 375 -25 0 -25 0 0 -375z"/>
<path d="M1190 1705 l0 -305 25 0 25 0 0 305 0 305 -25 0 -25 0 0 -305z"/>
<path d="M1464 1997 c-3 -8 -4 -54 -2 -103 3 -84 4 -89 26 -92 22 -3 22 -2 22
102 0 100 -1 106 -20 106 -11 0 -23 -6 -26 -13z"/>
<path d="M1740 1940 c0 -63 2 -70 20 -70 18 0 20 7 20 70 0 63 -2 70 -20 70
-18 0 -20 -7 -20 -70z"/>
<path d="M2010 1841 l0 -171 25 0 25 0 -2 168 c-3 165 -3 167 -25 170 l-23 3
0 -170z"/>
<path d="M1740 1740 c0 -63 2 -70 20 -70 18 0 20 7 20 70 0 63 -2 70 -20 70
-18 0 -20 -7 -20 -70z"/>
<path d="M380 1670 c0 -68 1 -70 25 -70 24 0 25 2 25 70 0 68 -1 70 -25 70
-24 0 -25 -2 -25 -70z"/>
<path d="M790 1124 l0 -545 23 3 22 3 3 543 2 542 -25 0 -25 0 0 -546z"/>
<path d="M1330 1599 c0 -67 1 -70 23 -67 20 3 22 9 25 71 3 66 3 67 -23 67
-24 0 -25 -2 -25 -71z"/>
<path d="M1462 1503 c3 -166 3 -168 26 -171 l22 -3 0 170 0 171 -25 0 -25 0 2
-167z"/>
<path d="M655 1598 c-3 -7 -4 -101 -3 -208 3 -194 3 -195 26 -198 l22 -3 -2
208 c-3 189 -5 208 -21 211 -9 2 -19 -3 -22 -10z"/>
<path d="M1740 1505 c0 -98 1 -105 20 -105 19 0 20 7 20 105 0 98 -1 105 -20
105 -19 0 -20 -7 -20 -105z"/>
<path d="M2010 1400 l0 -211 23 3 c22 3 22 3 22 208 0 205 0 205 -22 208 l-23
3 0 -211z"/>
<path d="M1060 1471 c0 -69 1 -71 25 -71 26 0 26 1 23 68 -3 61 -5 67 -25 70
-22 3 -23 0 -23 -67z"/>
<path d="M1872 1063 c3 -470 3 -478 23 -478 20 0 20 7 20 475 l0 475 -23 3
-22 3 2 -478z"/>
<path d="M1600 1435 c0 -31 3 -35 25 -35 22 0 25 4 25 35 0 31 -3 35 -25 35
-22 0 -25 -4 -25 -35z"/>
<path d="M380 1295 l0 -105 25 0 25 0 0 105 0 105 -25 0 -25 0 0 -105z"/>
<path d="M1330 790 l0 -610 25 0 25 0 0 610 0 610 -25 0 -25 0 0 -610z"/>
<path d="M1060 1300 c0 -37 2 -41 23 -38 18 2 22 9 22 38 0 29 -4 36 -22 38
-21 3 -23 -1 -23 -38z"/>
<path d="M1194 1326 c-11 -29 1 -61 24 -64 20 -3 22 1 22 37 0 35 -3 41 -20
41 -11 0 -23 -6 -26 -14z"/>
<path d="M1602 1198 c3 -65 5 -73 23 -73 18 0 20 7 20 70 0 65 -2 70 -23 73
-22 3 -23 2 -20 -70z"/>
<path d="M1740 1230 c0 -33 3 -40 20 -40 17 0 20 7 20 40 0 33 -3 40 -20 40
-17 0 -20 -7 -20 -40z"/>
<path d="M922 1163 c2 -30 7 -38 23 -38 16 0 21 8 23 38 3 34 1 37 -23 37 -24
0 -26 -3 -23 -37z"/>
<path d="M1060 960 l0 -240 25 0 25 0 0 240 0 240 -25 0 -25 0 0 -240z"/>
<path d="M1464 1187 c-2 -7 -3 -74 -2 -148 3 -130 4 -134 26 -137 22 -3 22 -3
22 147 0 145 -1 151 -20 151 -11 0 -23 -6 -26 -13z"/>
<path d="M1190 1095 c0 -31 3 -35 25 -35 22 0 25 4 25 35 0 31 -3 35 -25 35
-22 0 -25 -4 -25 -35z"/>
<path d="M520 660 c0 -403 0 -410 20 -410 20 0 20 7 20 410 0 403 0 410 -20
410 -20 0 -20 -7 -20 -410z"/>
<path d="M927 1064 c-4 -4 -7 -160 -7 -346 l0 -338 25 0 25 0 -2 342 c-3 300
-5 343 -18 346 -9 1 -19 0 -23 -4z"/>
<path d="M1607 1064 c-4 -4 -7 -128 -7 -276 l0 -268 25 0 25 0 -2 272 c-3 237
-5 273 -18 276 -9 1 -19 0 -23 -4z"/>
<path d="M2147 1064 c-4 -4 -7 -189 -7 -411 l0 -403 25 0 25 0 -2 407 c-3 359
-5 408 -18 411 -9 1 -19 0 -23 -4z"/>
<path d="M1195 987 c-3 -7 -4 -145 -3 -307 l3 -295 23 -3 22 -3 0 310 c0 306
0 311 -20 311 -11 0 -23 -6 -25 -13z"/>
<path d="M1465 788 c-3 -7 -4 -101 -3 -208 3 -194 3 -195 26 -198 l22 -3 -2
208 c-3 189 -5 208 -21 211 -9 2 -19 -3 -22 -10z"/>
</g>
</svg>
